# xmcd
#
# Track frame offsets:
#	150
#	21100
#	40264
#	61637
#	83062
#	103270
#	124905
#	148992
#	170990
#	191317
#
# Disc length: 2849 seconds
#
# Revision: 3
# Processed by: cddbd v1.5.2PL0 Copyright (c) Steve Scherf et al.
# Submitted via: EasyCDDAExtractor 15.3.0.1
#
DISCID=8a0b1f0a
DTITLE=Lissette - Amor De Luna
DYEAR=1997
DGENRE=Latin
TTITLE0=Encandilada
TTITLE1=Amor De Luna
TTITLE2=Cuando Me Faltas
TTITLE3=La Eterna Danza
TTITLE4=Para Siempre
TTITLE5=SOS Hassim
TTITLE6=Bello Idiota
TTITLE7=Quiero Hacer Contigo El Amor
TTITLE8=Campo De Batalla
TTITLE9=Regresare
EXTD=
EXTT0=
EXTT1=
EXTT2=
EXTT3=
EXTT4=
EXTT5=
EXTT6=
EXTT7=
EXTT8=
EXTT9=
PLAYORDER=
